<svg width="100%" viewBox="0 0 680 480" xmlns="http://www.w3.org/2000/svg">
  <defs>
    <clipPath id="squircle-clip">
      <rect x="190" y="40" width="300" height="300" rx="68"/>
    </clipPath>
  </defs>

  <style>
    .wordmark { fill: #141413; }
    .tagline { fill: #3D3D3A; }
    @media (prefers-color-scheme: dark) {
      .wordmark { fill: #ffffff; }
      .tagline { fill: #aaaaaa; }
    }
  </style>

  <!-- App icon: squircle background -->
  <rect x="190" y="40" width="300" height="300" rx="68" fill="#0A0A0A" />

  <!-- Subtle inner border -->
  <rect x="190" y="40" width="300" height="300" rx="68" fill="none" stroke="#ffffff" stroke-width="0.8" opacity="0.08" />

  <!-- Waveform: single continuous path, asymmetric peaks, human feel -->
  <path d="M228,190&#10;       C234,190 237,158 244,158 C251,158 254,222 261,222&#10;       C268,222 271,148 282,148 C293,148 296,232 307,232&#10;       C315,232 318,138 332,138 C346,138 349,232 357,232&#10;       C368,232 371,148 379,148 C390,148 393,222 399,222&#10;       C406,222 409,158 416,158 C423,158 426,190 432,190" fill="none" stroke="#ffffff" stroke-width="2.8" stroke-linecap="round" stroke-linejoin="round" />

  <!-- Wordmark -->
  <text x="340" y="390" text-anchor="middle" dominant-baseline="central" font-family="sans-serif" font-size="34" font-weight="500" letter-spacing="12" class="wordmark" opacity="0.92">MESMER</text>

  <!-- Tagline -->
  <text x="340" y="432" text-anchor="middle" dominant-baseline="central" font-family="sans-serif" font-size="12" font-weight="400" letter-spacing="3" class="tagline" opacity="0.55">on-device · private</text>

</svg>